# xmcd CD database file
#
# Track frame offsets:
#	150
#	19623
#	33341
#	52834
#	67084
#	84166
#	101810
#	121498
#	136983
#	155618
#	179131
#	195006
#	211621
#	227645
#	247657
#	262956
#
# Disc length: 3681 seconds
#
# Revision: 0
# Processed by: cddbd v1.5.2PL0 Copyright (c) Steve Scherf et al.
# Submitted via: CDex 1.51
#
DISCID=c70e5f10
DTITLE=James Talley - Heartsong
DYEAR=1900
DGENRE=Country
TTITLE0=James Talley - North Dakota Girl
TTITLE1=James Talley - I Will Come To You
TTITLE2=James Talley  - They Can't Kill Love
TTITLE3=James Talley - When Mama Ain't Happy
TTITLE4=James Talley - World Of Broken Hearts
TTITLE5=James Talley - Are They Really Different
TTITLE6=James Talley - Santa Fe Blues
TTITLE7=James Talley - She's The One
TTITLE8=James Talley - The Girls From Kelowna
TTITLE9=James Talley - Cold Blooded Killers
TTITLE10=James Talley - Whiskey And Beer
TTITLE11=James Talley - When It Was A Love Affair
TTITLE12=James Talley - Big Thunder
TTITLE13=James Talley - The Most Influential Teacher
TTITLE14=James Talley - If Only You Had Stayed
TTITLE15=James Talley - Song For Shilo
EXTD=
EXTT0=
EXTT1=
EXTT2=
EXTT3=
EXTT4=
EXTT5=
EXTT6=
EXTT7=
EXTT8=
EXTT9=
EXTT10=
EXTT11=
EXTT12=
EXTT13=
EXTT14=
EXTT15=
PLAYORDER=
